<?xml version="1.0" encoding="UTF-8"?><svg id="Calque_1" xmlns="http://www.w3.org/2000/svg" width="361.24mm" height="361.24mm" viewBox="0 0 1024 1024"><path d="M270.25,655.82h0c-2.43.73-5.02-.46-6.06-2.78-2.72-6.09-7.01-9.27-13.74-9.27s-12.83,4.42-12.83,11.67c0,23.64,43.58,10.59,49.81,40.61,3.77,21.32-10.08,36.91-36.33,36.91-20.33,0-31.11-7.32-36.04-25.91-.17-.63.2-1.28.83-1.47l9.29-2.77c4.56-1.36,9.45.37,12.22,4.25,2.96,4.15,7.42,6.47,13.7,6.47,10.66,0,16.89-4.13,16.89-11.67,0-20.08-46.12-11.17-49.81-40.61-2.1-18.92,8.34-36.91,32.27-36.91,12.28,0,20.59,2.75,26.3,9.16,6.69,7.5,3.12,19.45-6.51,22.33Z"/><path d="M368.43,684.23c.62,3.52.85,8.41.68,15.93-.01.66-.55,1.19-1.21,1.19h-52.65c-.89,0-1.49.94-1.09,1.74,2.98,6.02,8.74,10.44,16.56,10.44,6.62,0,11.8-3.28,15.04-7.97.3-.43.82-.64,1.32-.5l17.65,4.85c.7.19,1.08.95.8,1.62-5.4,12.86-17.11,21.44-34.81,21.44h-.07c-25.23-.07-38.29-17.33-38.29-40.03s13.05-40.17,38.36-40.17c21.97,0,34.73,13.12,37.71,31.47ZM315.37,684.23h30.8c.9,0,1.5-.95,1.09-1.75-3.04-5.94-8.79-10.29-16.53-10.29s-13.35,4.34-16.44,10.28c-.42.8.18,1.76,1.08,1.76Z"/><path d="M395.12,653.97v3.72c0,1.04,1.22,1.59,2.01.9,4.14-3.61,9.92-5.82,18.08-5.82,28.13,0,33.72,19.43,33.72,40.03v36.64c0,.67-.54,1.21-1.21,1.21h-17.01c-.67,0-1.21-.54-1.21-1.21v-36.64c0-15.45-7.03-20.59-16.6-20.59s-17.77,5.08-17.77,20.59v36.64c0,.67-.54,1.21-1.21,1.21h-17.01c-.67,0-1.21-.54-1.21-1.21v-75.46c0-.67.54-1.21,1.21-1.21h17.01c.67,0,1.21.54,1.21,1.21Z"/><path d="M516.99,675.5l-17.18,5.13c-.62.18-1.28-.15-1.48-.76-2.23-6.5-5.96-7.68-11.4-7.68-6.02,0-9.35,3.12-9.35,7.03.43,11.02,39.01,5.8,42.85,23.2,3.05,18.13-9.28,30.53-32.85,30.53-14.71,0-27.54-3.97-32.55-22.43-.17-.63.2-1.28.83-1.47l17.19-5.13c.61-.18,1.26.14,1.47.73,2.26,6.19,7.5,8.18,13.06,8.86,4.28.36,13.41-1.01,13.41-7.03-.65-10.59-38.21-5.8-42.85-21.46-3.48-13.7,5.95-32.27,28.79-32.27,19.87,0,26.99,6.48,30.89,21.27.17.63-.2,1.28-.83,1.46Z"/><path d="M601.28,684.23c.62,3.52.85,8.41.68,15.93-.01.66-.55,1.19-1.21,1.19h-52.65c-.89,0-1.49.94-1.09,1.74,2.98,6.02,8.74,10.44,16.56,10.44,6.62,0,11.8-3.28,15.04-7.97.3-.43.82-.64,1.32-.5l17.65,4.85c.7.19,1.08.95.8,1.62-5.4,12.86-17.11,21.44-34.81,21.44h-.07c-25.23-.07-38.29-17.33-38.29-40.03s13.05-40.17,38.36-40.17c21.97,0,34.73,13.12,37.71,31.47ZM548.22,684.23h30.8c.9,0,1.5-.95,1.09-1.75-3.04-5.94-8.79-10.29-16.53-10.29s-13.35,4.34-16.44,10.28c-.42.8.18,1.76,1.08,1.76Z"/><path d="M631.96,627.87v82.13c0,.67.54,1.21,1.21,1.21h27.97c9.47,0,17.16,7.68,17.16,17.16v1.07c0,.67-.54,1.21-1.21,1.21h-63.35c-.67,0-1.21-.54-1.21-1.21v-101.56c0-.67.54-1.21,1.21-1.21h17.01c.67,0,1.21.54,1.21,1.21Z"/><path d="M735.44,656.1v-2.13c0-.67.54-1.21,1.21-1.21h17.01c.67,0,1.21.54,1.21,1.21v60.54c0,10.06-8.16,18.22-18.22,18.22h0c-.67,0-1.21-.54-1.21-1.21v-2.1c0-.97-1.07-1.53-1.88-1-4.29,2.78-9.44,4.32-15.3,4.32-25.31,0-35.24-19.94-35.24-39.95s9.93-40.03,35.24-40.03c5.86,0,11.01,1.59,15.31,4.34.81.52,1.87-.04,1.87-1.01ZM702.45,692.79c0,10.51,5.95,20.59,15.81,20.59,11.75,0,17.18-10.08,17.18-20.59s-4.86-20.59-17.18-20.59c-9.86,0-15.81,10.08-15.81,20.59Z"/><path d="M783.01,627.87v28.23c0,.97,1.06,1.53,1.88,1,4.28-2.75,9.38-4.34,15.31-4.34,25.31,0,35.24,17.33,35.24,40.03s-9.93,39.95-35.24,39.95c-5.92,0-11.02-1.53-15.3-4.31-.81-.53-1.88.03-1.88,1h0c0,.67-.54,1.21-1.21,1.21h0c-10.06,0-18.22-8.16-18.22-18.22v-84.55c0-.67.54-1.21,1.21-1.21h17.01c.67,0,1.21.54,1.21,1.21ZM783.01,692.79c0,10.51,5.37,20.59,17.18,20.59,9.86,0,15.81-10.08,15.81-20.59s-5.95-20.59-15.81-20.59c-12.33,0-17.18,10.08-17.18,20.59Z"/><path d="M671.35,305.77c35.53,28.32,13.85,90.4-6.03,122.53-4.43,7.16-9.85,13.39-14.99,20.03,16.48,19.4,33.76,41.72,42.07,66.1,24.7,72.46-60.87,60.67-102.9,47.47-13.98-4.39-27.47-10.22-40.93-15.94-31.12,18.3-65.68,37.59-101.79,43.63-50.93,8.53-86.53-14.18-70.96-69.27,6.02-21.31,17.49-40.59,29.06-59.22-3.27-2.61-6.41-5.27-9.55-8.04-13.25-11.69-24.91-25.14-32.57-41.51-25.21-53.87-1.61-108.17,62.76-103.38,29.11,2.17,55.5,16.91,82.18,26.5,6.3,2.26,11.94,5.22,18.37,2.14,7.51-3.6,16.12-10.38,23.61-14.81,33.8-19.98,86.31-44.4,121.66-16.23ZM497.15,360.86c-20.92-7.74-50.69-17.3-70.75-2.98-18.06,12.9-12.38,37.77-4.54,54.93,2.56,5.6,6.24,10.55,8.89,16.1l1.14-.35c3.48-4.42,6.95-9.15,10.65-13.38,12.64-14.45,26.29-27.91,40.36-40.88,4.81-4.43,9.44-9.05,14.26-13.45ZM632.17,429.46c5.01-12.74,11.62-27.02,12.32-40.89.71-14.04-2.23-28.37-16.56-34.17-11.22-4.55-23.87-1.71-34.86,2.2-10.63,3.79-21.24,9.78-30.59,16.05,24.94,16.68,47.64,36.55,69.69,56.81ZM609.89,464.8l9.57-13.11c-2.31-2.56-4.78-5.07-7.03-7.69-16.33-19.02-43.14-40.55-64.38-54.18-1.12-.72-4.65-3.13-5.66-3.18-1.87-.09-6.57,4.79-8.21,6.03-24.09,18.28-47.29,38.17-67.23,60.66l-5.97,8.16c13.44,10.5,26.58,21.6,41.03,30.89,14.39,9.26,30.18,17.59,45.93,24.31,23.45-13.47,45.52-30.25,61.94-51.9ZM634.37,472.28c-.77-.17-.9.11-1.38.53-2.1,1.85-4.97,6.43-7.11,8.8-14.34,15.86-30.6,29.73-47.16,43.71-.19.16-3.98,1.97-3.07,2.93,21.75,6.92,75.96,24.54,73.54-15.63-.53-8.86-5.55-22.01-9.4-30.12-1.67-3.51-4.14-6.54-5.42-10.23ZM441.73,486.55c-2.67,5.72-6.11,11.05-8.72,16.82-16.33,36.15-7.36,59.95,36.06,49.78,18.05-4.22,36.19-12.77,52.22-21.87l-79.57-44.73Z"/><ellipse cx="543.42" cy="451.67" rx="35.55" ry="23.36" transform="translate(-156.99 358.21) rotate(-32.13)"/></svg>
